<mxfile host="app.diagrams.net" agent="Mozilla/5.0 (Windows NT 10.0; Win64; x64; rv:132.0) Gecko/20100101 Firefox/132.0" version="24.8.4">
  <diagram name="Seite-1" id="MID6zEgcj9is02KNmIdV">
    <mxGraphModel dx="3754" dy="1527" grid="0" gridSize="10" guides="1" tooltips="1" connect="1" arrows="1" fold="1" page="0" pageScale="1" pageWidth="827" pageHeight="1169" math="0" shadow="0">
      <root>
        <mxCell id="0" />
        <mxCell id="1" parent="0" />
        <mxCell id="p-2aNFYJx5vUA7HOTOrk-14" style="edgeStyle=none;curved=1;rounded=0;orthogonalLoop=1;jettySize=auto;html=1;exitX=1;exitY=0.5;exitDx=0;exitDy=0;entryX=0;entryY=0.25;entryDx=0;entryDy=0;fontSize=12;startSize=8;endSize=8;" edge="1" parent="1" source="p-2aNFYJx5vUA7HOTOrk-1" target="p-2aNFYJx5vUA7HOTOrk-9">
          <mxGeometry relative="1" as="geometry" />
        </mxCell>
        <mxCell id="p-2aNFYJx5vUA7HOTOrk-1" value="1 vs 2" style="rounded=0;whiteSpace=wrap;html=1;" vertex="1" parent="1">
          <mxGeometry x="-606" y="-83" width="120" height="60" as="geometry" />
        </mxCell>
        <mxCell id="p-2aNFYJx5vUA7HOTOrk-15" style="edgeStyle=none;curved=1;rounded=0;orthogonalLoop=1;jettySize=auto;html=1;exitX=1;exitY=0.5;exitDx=0;exitDy=0;entryX=0;entryY=0.75;entryDx=0;entryDy=0;fontSize=12;startSize=8;endSize=8;" edge="1" parent="1" source="p-2aNFYJx5vUA7HOTOrk-2" target="p-2aNFYJx5vUA7HOTOrk-9">
          <mxGeometry relative="1" as="geometry" />
        </mxCell>
        <mxCell id="p-2aNFYJx5vUA7HOTOrk-2" value="3 vs 4" style="rounded=0;whiteSpace=wrap;html=1;" vertex="1" parent="1">
          <mxGeometry x="-606" y="1" width="120" height="60" as="geometry" />
        </mxCell>
        <mxCell id="p-2aNFYJx5vUA7HOTOrk-16" style="edgeStyle=none;curved=1;rounded=0;orthogonalLoop=1;jettySize=auto;html=1;exitX=1;exitY=0.5;exitDx=0;exitDy=0;entryX=0;entryY=0.25;entryDx=0;entryDy=0;fontSize=12;startSize=8;endSize=8;" edge="1" parent="1" source="p-2aNFYJx5vUA7HOTOrk-3" target="p-2aNFYJx5vUA7HOTOrk-10">
          <mxGeometry relative="1" as="geometry" />
        </mxCell>
        <mxCell id="p-2aNFYJx5vUA7HOTOrk-3" value="5 vs 6" style="rounded=0;whiteSpace=wrap;html=1;" vertex="1" parent="1">
          <mxGeometry x="-606" y="85" width="120" height="60" as="geometry" />
        </mxCell>
        <mxCell id="p-2aNFYJx5vUA7HOTOrk-17" style="edgeStyle=none;curved=1;rounded=0;orthogonalLoop=1;jettySize=auto;html=1;exitX=1;exitY=0.5;exitDx=0;exitDy=0;entryX=0;entryY=0.75;entryDx=0;entryDy=0;fontSize=12;startSize=8;endSize=8;" edge="1" parent="1" source="p-2aNFYJx5vUA7HOTOrk-4" target="p-2aNFYJx5vUA7HOTOrk-10">
          <mxGeometry relative="1" as="geometry" />
        </mxCell>
        <mxCell id="p-2aNFYJx5vUA7HOTOrk-4" value="7 vs 8" style="rounded=0;whiteSpace=wrap;html=1;" vertex="1" parent="1">
          <mxGeometry x="-606" y="169" width="120" height="60" as="geometry" />
        </mxCell>
        <mxCell id="p-2aNFYJx5vUA7HOTOrk-18" style="edgeStyle=none;curved=1;rounded=0;orthogonalLoop=1;jettySize=auto;html=1;exitX=1;exitY=0.5;exitDx=0;exitDy=0;entryX=0;entryY=0.25;entryDx=0;entryDy=0;fontSize=12;startSize=8;endSize=8;" edge="1" parent="1" source="p-2aNFYJx5vUA7HOTOrk-5" target="p-2aNFYJx5vUA7HOTOrk-11">
          <mxGeometry relative="1" as="geometry" />
        </mxCell>
        <mxCell id="p-2aNFYJx5vUA7HOTOrk-5" value="9 vs 10" style="rounded=0;whiteSpace=wrap;html=1;" vertex="1" parent="1">
          <mxGeometry x="-606" y="253" width="120" height="60" as="geometry" />
        </mxCell>
        <mxCell id="p-2aNFYJx5vUA7HOTOrk-19" style="edgeStyle=none;curved=1;rounded=0;orthogonalLoop=1;jettySize=auto;html=1;exitX=1;exitY=0.5;exitDx=0;exitDy=0;entryX=0;entryY=0.75;entryDx=0;entryDy=0;fontSize=12;startSize=8;endSize=8;" edge="1" parent="1" source="p-2aNFYJx5vUA7HOTOrk-6" target="p-2aNFYJx5vUA7HOTOrk-11">
          <mxGeometry relative="1" as="geometry" />
        </mxCell>
        <mxCell id="p-2aNFYJx5vUA7HOTOrk-6" value="11 vs 12" style="rounded=0;whiteSpace=wrap;html=1;" vertex="1" parent="1">
          <mxGeometry x="-606" y="337" width="120" height="60" as="geometry" />
        </mxCell>
        <mxCell id="p-2aNFYJx5vUA7HOTOrk-20" style="edgeStyle=none;curved=1;rounded=0;orthogonalLoop=1;jettySize=auto;html=1;exitX=1;exitY=0.5;exitDx=0;exitDy=0;entryX=0;entryY=0.25;entryDx=0;entryDy=0;fontSize=12;startSize=8;endSize=8;" edge="1" parent="1" source="p-2aNFYJx5vUA7HOTOrk-7" target="p-2aNFYJx5vUA7HOTOrk-12">
          <mxGeometry relative="1" as="geometry" />
        </mxCell>
        <mxCell id="p-2aNFYJx5vUA7HOTOrk-7" value="13 vs 14" style="rounded=0;whiteSpace=wrap;html=1;" vertex="1" parent="1">
          <mxGeometry x="-606" y="421" width="120" height="60" as="geometry" />
        </mxCell>
        <mxCell id="p-2aNFYJx5vUA7HOTOrk-21" style="edgeStyle=none;curved=1;rounded=0;orthogonalLoop=1;jettySize=auto;html=1;exitX=1;exitY=0.5;exitDx=0;exitDy=0;fontSize=12;startSize=8;endSize=8;" edge="1" parent="1" source="p-2aNFYJx5vUA7HOTOrk-8" target="p-2aNFYJx5vUA7HOTOrk-12">
          <mxGeometry relative="1" as="geometry" />
        </mxCell>
        <mxCell id="p-2aNFYJx5vUA7HOTOrk-8" value="15 vs 16" style="rounded=0;whiteSpace=wrap;html=1;" vertex="1" parent="1">
          <mxGeometry x="-606" y="505" width="120" height="60" as="geometry" />
        </mxCell>
        <mxCell id="p-2aNFYJx5vUA7HOTOrk-24" style="edgeStyle=none;curved=1;rounded=0;orthogonalLoop=1;jettySize=auto;html=1;exitX=1;exitY=0.5;exitDx=0;exitDy=0;entryX=0;entryY=0.25;entryDx=0;entryDy=0;fontSize=12;startSize=8;endSize=8;" edge="1" parent="1" source="p-2aNFYJx5vUA7HOTOrk-9" target="p-2aNFYJx5vUA7HOTOrk-22">
          <mxGeometry relative="1" as="geometry" />
        </mxCell>
        <mxCell id="p-2aNFYJx5vUA7HOTOrk-9" value="" style="rounded=0;whiteSpace=wrap;html=1;" vertex="1" parent="1">
          <mxGeometry x="-411" y="-37" width="120" height="60" as="geometry" />
        </mxCell>
        <mxCell id="p-2aNFYJx5vUA7HOTOrk-25" style="edgeStyle=none;curved=1;rounded=0;orthogonalLoop=1;jettySize=auto;html=1;exitX=1;exitY=0.5;exitDx=0;exitDy=0;entryX=0;entryY=0.75;entryDx=0;entryDy=0;fontSize=12;startSize=8;endSize=8;" edge="1" parent="1" source="p-2aNFYJx5vUA7HOTOrk-10" target="p-2aNFYJx5vUA7HOTOrk-22">
          <mxGeometry relative="1" as="geometry" />
        </mxCell>
        <mxCell id="p-2aNFYJx5vUA7HOTOrk-10" value="" style="rounded=0;whiteSpace=wrap;html=1;" vertex="1" parent="1">
          <mxGeometry x="-411" y="130" width="120" height="60" as="geometry" />
        </mxCell>
        <mxCell id="p-2aNFYJx5vUA7HOTOrk-26" style="edgeStyle=none;curved=1;rounded=0;orthogonalLoop=1;jettySize=auto;html=1;exitX=1;exitY=0.5;exitDx=0;exitDy=0;entryX=0;entryY=0.25;entryDx=0;entryDy=0;fontSize=12;startSize=8;endSize=8;" edge="1" parent="1" source="p-2aNFYJx5vUA7HOTOrk-11" target="p-2aNFYJx5vUA7HOTOrk-23">
          <mxGeometry relative="1" as="geometry" />
        </mxCell>
        <mxCell id="p-2aNFYJx5vUA7HOTOrk-11" value="" style="rounded=0;whiteSpace=wrap;html=1;" vertex="1" parent="1">
          <mxGeometry x="-411" y="297" width="120" height="60" as="geometry" />
        </mxCell>
        <mxCell id="p-2aNFYJx5vUA7HOTOrk-27" style="edgeStyle=none;curved=1;rounded=0;orthogonalLoop=1;jettySize=auto;html=1;exitX=1;exitY=0.5;exitDx=0;exitDy=0;entryX=0;entryY=0.75;entryDx=0;entryDy=0;fontSize=12;startSize=8;endSize=8;" edge="1" parent="1" source="p-2aNFYJx5vUA7HOTOrk-12" target="p-2aNFYJx5vUA7HOTOrk-23">
          <mxGeometry relative="1" as="geometry" />
        </mxCell>
        <mxCell id="p-2aNFYJx5vUA7HOTOrk-12" value="" style="rounded=0;whiteSpace=wrap;html=1;" vertex="1" parent="1">
          <mxGeometry x="-411" y="464" width="120" height="60" as="geometry" />
        </mxCell>
        <mxCell id="p-2aNFYJx5vUA7HOTOrk-29" style="edgeStyle=none;curved=1;rounded=0;orthogonalLoop=1;jettySize=auto;html=1;exitX=1;exitY=0.5;exitDx=0;exitDy=0;entryX=0;entryY=0.25;entryDx=0;entryDy=0;fontSize=12;startSize=8;endSize=8;" edge="1" parent="1" source="p-2aNFYJx5vUA7HOTOrk-22" target="p-2aNFYJx5vUA7HOTOrk-28">
          <mxGeometry relative="1" as="geometry" />
        </mxCell>
        <mxCell id="p-2aNFYJx5vUA7HOTOrk-22" value="" style="rounded=0;whiteSpace=wrap;html=1;" vertex="1" parent="1">
          <mxGeometry x="-197" y="49" width="120" height="60" as="geometry" />
        </mxCell>
        <mxCell id="p-2aNFYJx5vUA7HOTOrk-30" style="edgeStyle=none;curved=1;rounded=0;orthogonalLoop=1;jettySize=auto;html=1;exitX=1;exitY=0.5;exitDx=0;exitDy=0;entryX=0;entryY=0.75;entryDx=0;entryDy=0;fontSize=12;startSize=8;endSize=8;" edge="1" parent="1" source="p-2aNFYJx5vUA7HOTOrk-23" target="p-2aNFYJx5vUA7HOTOrk-28">
          <mxGeometry relative="1" as="geometry" />
        </mxCell>
        <mxCell id="p-2aNFYJx5vUA7HOTOrk-23" value="" style="rounded=0;whiteSpace=wrap;html=1;" vertex="1" parent="1">
          <mxGeometry x="-197" y="383" width="120" height="60" as="geometry" />
        </mxCell>
        <mxCell id="p-2aNFYJx5vUA7HOTOrk-28" value="" style="rounded=0;whiteSpace=wrap;html=1;" vertex="1" parent="1">
          <mxGeometry x="65" y="234" width="120" height="60" as="geometry" />
        </mxCell>
      </root>
    </mxGraphModel>
  </diagram>
</mxfile>
